<svg xmlns="http://www.w3.org/2000/svg" viewBox="0 0 256 256" width="256" height="256">
  <defs>
    <radialGradient id="bg" cx=".5" cy=".42" r=".85">
      <stop offset="0" stop-color="#ff8aa3"/>
      <stop offset=".6" stop-color="#e02a52"/>
      <stop offset="1" stop-color="#8f0d2a"/>
    </radialGradient>
    <linearGradient id="gold" x1="0" y1="0" x2="1" y2="1">
      <stop offset="0" stop-color="#fff3c0"/>
      <stop offset=".5" stop-color="#f4c542"/>
      <stop offset="1" stop-color="#b47a1c"/>
    </linearGradient>
  </defs>
  <rect width="256" height="256" fill="url(#bg)"/>
  <!-- light rays -->
  <g fill="#fff" opacity=".14">
    <path d="M128 128L-20 40V-20h60zM128 128L96-20h64zM128 128L216-20h60v60zM128 128l148 88v60h-60zM128 128l32 148h-64zM128 128l-88 148h-60v-60zM128 128L276 90v60zM128 128L-20 90v60z"/>
  </g>
  <!-- sparkles -->
  <g fill="#fff3c0">
    <path d="M34 54l4 11 11 4-11 4-4 11-4-11-11-4 11-4z"/>
    <path d="M224 36l3 8 8 3-8 3-3 8-3-8-8-3 8-3z"/>
    <path d="M230 150l3 8 8 3-8 3-3 8-3-8-8-3 8-3z"/>
  </g>
  <ellipse cx="128" cy="230" rx="72" ry="9" fill="#2a1a3a" opacity=".3"/>
  <!-- golden mane -->
  <g fill="url(#gold)" stroke="#2a1a3a" stroke-width="6">
    <circle cx="128" cy="62" r="24"/>
    <circle cx="70" cy="86" r="26"/>
    <circle cx="186" cy="86" r="26"/>
    <circle cx="50" cy="146" r="26"/>
    <circle cx="206" cy="146" r="26"/>
    <circle cx="74" cy="198" r="24"/>
    <circle cx="182" cy="198" r="24"/>
  </g>
  <!-- horns -->
  <g fill="#fff0b8" stroke="#2a1a3a" stroke-width="6" stroke-linejoin="round">
    <path d="M92 86q-26-26-12-60q26 14 30 56z"/>
    <path d="M164 86q26-26 12-60q-26 14-30 56z"/>
  </g>
  <!-- head -->
  <ellipse cx="128" cy="146" rx="72" ry="64" fill="#2fd6b5" stroke="#2a1a3a" stroke-width="7"/>
  <ellipse cx="86" cy="112" rx="12" ry="21" transform="rotate(28 86 112)" fill="#fff" opacity=".5"/>
  <!-- scales on the brow -->
  <g fill="none" stroke="#139f86" stroke-width="4" stroke-linecap="round">
    <path d="M112 100q16 10 32 0M118 112q10 7 20 0"/>
  </g>
  <!-- pearl -->
  <circle cx="128" cy="84" r="13" fill="#fff6c8" stroke="#2a1a3a" stroke-width="5"/>
  <circle cx="123" cy="79" r="4" fill="#fff"/>
  <!-- muzzle -->
  <ellipse cx="128" cy="178" rx="48" ry="30" fill="#c9fff0" stroke="#2a1a3a" stroke-width="5"/>
  <ellipse cx="70" cy="166" rx="13" ry="8" fill="#ff9fb0"/>
  <ellipse cx="186" cy="166" rx="13" ry="8" fill="#ff9fb0"/>
  <!-- whiskers -->
  <g fill="none" stroke-linecap="round">
    <path d="M86 176q-34-10-56 12q20-6 38 4" stroke="#2a1a3a" stroke-width="10"/>
    <path d="M170 176q34-10 56 12q-20-6-38 4" stroke="#2a1a3a" stroke-width="10"/>
    <path d="M86 176q-34-10-56 12q20-6 38 4" stroke="#ffd35a" stroke-width="5"/>
    <path d="M170 176q34-10 56 12q-20-6-38 4" stroke="#ffd35a" stroke-width="5"/>
  </g>
  <!-- eyes + brows -->
  <ellipse cx="96" cy="140" rx="14" ry="16" fill="#fff" stroke="#2a1a3a" stroke-width="5"/>
  <ellipse cx="160" cy="140" rx="14" ry="16" fill="#fff" stroke="#2a1a3a" stroke-width="5"/>
  <ellipse cx="99" cy="142" rx="8.5" ry="11" fill="#2a1a3a"/>
  <ellipse cx="157" cy="142" rx="8.5" ry="11" fill="#2a1a3a"/>
  <circle cx="102" cy="137" r="3.6" fill="#fff"/>
  <circle cx="160" cy="137" r="3.6" fill="#fff"/>
  <path d="M80 118q14-12 30-3M176 118q-14-12-30-3" fill="none" stroke="#2a1a3a" stroke-width="6" stroke-linecap="round"/>
  <!-- nose + mouth -->
  <circle cx="113" cy="168" r="4.5" fill="#2a1a3a"/>
  <circle cx="143" cy="168" r="4.5" fill="#2a1a3a"/>
  <path d="M106 186q22 15 44 0" fill="none" stroke="#2a1a3a" stroke-width="5" stroke-linecap="round"/>
  <path d="M116 191l4 9l5-6M140 191l-4 9l-5-6" fill="#fff" stroke="#2a1a3a" stroke-width="3" stroke-linejoin="round"/>
  <!-- seal -->
  <g transform="rotate(-6 180 204)">
    <rect x="162" y="186" width="36" height="36" rx="6" fill="#c3272d" stroke="#2a1a3a" stroke-width="4"/>
    <text x="180" y="214" text-anchor="middle" font-family="Kaiti SC, STKaiti, PingFang SC, serif" font-size="26" font-weight="700" fill="#f7ecdc">龙</text>
  </g>
</svg>
