<svg xmlns="http://www.w3.org/2000/svg" viewBox="0 0 256 256" width="256" height="256">
  <defs>
    <radialGradient id="bg" cx=".5" cy=".4" r=".85">
      <stop offset="0" stop-color="#f4effa"/>
      <stop offset="1" stop-color="#b4adc0"/>
    </radialGradient>
  </defs>
  <rect width="256" height="256" fill="url(#bg)"/>
  <ellipse cx="128" cy="228" rx="70" ry="10" fill="#2a1a3a" opacity=".25"/>
  <!-- horns -->
  <g fill="#e8d3a0" stroke="#2a1a3a" stroke-width="6" stroke-linejoin="round">
    <path d="M100 82q-24-30 0-52q-4 22 18 40z"/>
    <path d="M156 82q24-30 0-52q4 22-18 40z"/>
  </g>
  <!-- floppy ears -->
  <g stroke="#2a1a3a" stroke-width="7">
    <ellipse cx="46" cy="136" rx="32" ry="15" transform="rotate(28 46 136)" fill="#fff7ec"/>
    <ellipse cx="210" cy="136" rx="32" ry="15" transform="rotate(-28 210 136)" fill="#fff7ec"/>
  </g>
  <ellipse cx="50" cy="138" rx="16" ry="6" transform="rotate(28 50 138)" fill="#ff9fb0"/>
  <ellipse cx="206" cy="138" rx="16" ry="6" transform="rotate(-28 206 138)" fill="#ff9fb0"/>
  <!-- beard -->
  <path d="M104 190q24 10 48 0l-8 42q-16 8-32 0z" fill="#fff7ec" stroke="#2a1a3a" stroke-width="6" stroke-linejoin="round"/>
  <path d="M120 206l2 14M136 206l-2 14" stroke="#d9c8b0" stroke-width="3.5" stroke-linecap="round"/>
  <!-- head -->
  <ellipse cx="128" cy="140" rx="70" ry="66" fill="#fff7ec" stroke="#2a1a3a" stroke-width="7"/>
  <!-- fluffy tuft -->
  <path d="M104 80q8-14 24-6q16-8 24 6q-12 8-24 4q-12 4-24-4z" fill="#fff" stroke="#2a1a3a" stroke-width="4.5" stroke-linejoin="round"/>
  <ellipse cx="86" cy="112" rx="12" ry="20" transform="rotate(26 86 112)" fill="#fff" opacity=".7"/>
  <ellipse cx="128" cy="176" rx="40" ry="26" fill="#f6e4d0" stroke="#2a1a3a" stroke-width="5"/>
  <ellipse cx="72" cy="170" rx="13" ry="8" fill="#ff9fb0"/>
  <ellipse cx="184" cy="170" rx="13" ry="8" fill="#ff9fb0"/>
  <ellipse cx="96" cy="142" rx="11" ry="15" fill="#2a1a3a"/>
  <circle cx="100" cy="136" r="4.8" fill="#fff"/>
  <ellipse cx="160" cy="142" rx="11" ry="15" fill="#2a1a3a"/>
  <circle cx="164" cy="136" r="4.8" fill="#fff"/>
  <ellipse cx="128" cy="164" rx="9" ry="6" fill="#ff7a95" stroke="#2a1a3a" stroke-width="3.5"/>
  <path d="M128 170v6M128 176q-9 9-18 2M128 176q9 9 18 2" fill="none" stroke="#2a1a3a" stroke-width="4.5" stroke-linecap="round" stroke-linejoin="round"/>
  <!-- seal -->
  <g transform="rotate(-6 180 204)">
    <rect x="162" y="186" width="36" height="36" rx="6" fill="#c3272d" stroke="#2a1a3a" stroke-width="4"/>
    <text x="180" y="214" text-anchor="middle" font-family="Kaiti SC, STKaiti, PingFang SC, serif" font-size="26" font-weight="700" fill="#f7ecdc">羊</text>
  </g>
</svg>
