<svg xmlns="http://www.w3.org/2000/svg" viewBox="0 0 256 256" width="256" height="256">
  <defs>
    <radialGradient id="bg" cx=".5" cy=".4" r=".85">
      <stop offset="0" stop-color="#cfe3ff"/>
      <stop offset="1" stop-color="#1f5fd0"/>
    </radialGradient>
  </defs>
  <rect width="256" height="256" fill="url(#bg)"/>
  <path d="M128 20l4 10 10 4-10 4-4 10-4-10-10-4 10-4z" fill="#fff" opacity=".85"/>
  <ellipse cx="128" cy="228" rx="70" ry="10" fill="#2a1a3a" opacity=".25"/>
  <!-- ears -->
  <g stroke="#2a1a3a" stroke-width="7">
    <circle cx="62" cy="80" r="25" fill="#2b2433"/>
    <circle cx="194" cy="80" r="25" fill="#2b2433"/>
  </g>
  <!-- head -->
  <ellipse cx="128" cy="144" rx="82" ry="70" fill="#fffaf0" stroke="#2a1a3a" stroke-width="7"/>
  <ellipse cx="84" cy="106" rx="13" ry="21" transform="rotate(27 84 106)" fill="#fff" opacity=".6"/>
  <!-- eye patches -->
  <ellipse cx="92" cy="140" rx="20" ry="26" transform="rotate(25 92 140)" fill="#2b2433"/>
  <ellipse cx="164" cy="140" rx="20" ry="26" transform="rotate(-25 164 140)" fill="#2b2433"/>
  <!-- eyes -->
  <ellipse cx="94" cy="138" rx="10" ry="13" fill="#fff"/>
  <ellipse cx="95" cy="140" rx="6.5" ry="9" fill="#2a1a3a"/>
  <circle cx="97" cy="136" r="3.2" fill="#fff"/>
  <ellipse cx="162" cy="138" rx="10" ry="13" fill="#fff"/>
  <ellipse cx="161" cy="140" rx="6.5" ry="9" fill="#2a1a3a"/>
  <circle cx="163" cy="136" r="3.2" fill="#fff"/>
  <!-- cheeks, nose, mouth -->
  <ellipse cx="68" cy="180" rx="13" ry="8" fill="#ff9fb0"/>
  <ellipse cx="188" cy="180" rx="13" ry="8" fill="#ff9fb0"/>
  <ellipse cx="128" cy="168" rx="12" ry="8" fill="#2b2433" stroke="#2a1a3a" stroke-width="3.5"/>
  <ellipse cx="124" cy="165" rx="3.5" ry="2" fill="#fff" opacity=".7"/>
  <path d="M128 176v6M128 182q-10 9-20 2M128 182q10 9 20 2" fill="none" stroke="#2a1a3a" stroke-width="4.5" stroke-linecap="round" stroke-linejoin="round"/>
  <!-- bamboo in front -->
  <g transform="translate(60 196) rotate(-20) scale(.75) translate(-66 -196)" stroke="#2a1a3a" stroke-linejoin="round">
    <path d="M64 168Q36 150 24 168Q44 188 64 176Z" fill="#5fcf4a" stroke-width="4.5"/>
    <path d="M56 160Q44 134 62 124Q76 144 62 164Z" fill="#7ed957" stroke-width="4.5"/>
    <rect x="52" y="168" width="28" height="62" rx="7" fill="#7ed957" stroke-width="5"/>
    <rect x="50" y="190" width="32" height="9" rx="4" fill="#4fae3a" stroke-width="4"/>
  </g>
  <!-- seal -->
  <g transform="rotate(-6 180 204)">
    <rect x="162" y="186" width="36" height="36" rx="6" fill="#c3272d" stroke="#2a1a3a" stroke-width="4"/>
    <text x="180" y="214" text-anchor="middle" font-family="Kaiti SC, STKaiti, PingFang SC, serif" font-size="26" font-weight="700" fill="#f7ecdc">熊</text>
  </g>
</svg>
