<svg xmlns="http://www.w3.org/2000/svg" viewBox="0 0 256 256" width="256" height="256">
  <defs>
    <radialGradient id="bg" cx=".5" cy=".4" r=".85">
      <stop offset="0" stop-color="#fff0b8"/>
      <stop offset="1" stop-color="#d98a0b"/>
    </radialGradient>
    <linearGradient id="gold" x1="0" y1="0" x2="1" y2="1">
      <stop offset="0" stop-color="#fff3c0"/>
      <stop offset=".5" stop-color="#f4c542"/>
      <stop offset="1" stop-color="#b47a1c"/>
    </linearGradient>
  </defs>
  <rect width="256" height="256" fill="url(#bg)"/>
  <g fill="#fff" opacity=".12">
    <path d="M128 128L-20 40V-20h60zM128 128L96-20h64zM128 128L216-20h60v60zM128 128l148 88v60h-60zM128 128l32 148h-64zM128 128l-88 148h-60v-60zM128 128L276 90v60zM128 128L-20 90v60z"/>
  </g>
  <g fill="#fff3c0">
    <path d="M34 60l4 11 11 4-11 4-4 11-4-11-11-4 11-4z"/>
    <path d="M226 62l3 8 8 3-8 3-3 8-3-8-8-3 8-3z"/>
    <path d="M222 156l3 7 7 3-7 3-3 7-3-7-7-3 7-3z"/>
  </g>
  <ellipse cx="128" cy="230" rx="70" ry="9" fill="#2a1a3a" opacity=".25"/>
  <!-- crest plumes -->
  <g stroke="#2a1a3a" stroke-width="6" stroke-linejoin="round" stroke-linecap="round">
    <path d="M88 100q-34-30-14-76q20 16 28 36q4-16 22-24q4 36-8 66z" fill="#ff8a1c"/>
    <path d="M168 100q34-30 14-76q-20 16-28 36q-4-16-22-24q-4 36 8 66z" fill="#ff8a1c"/>
    <path d="M128 94q-30-28-10-72q10 14 10 26q0-12 10-26q20 44-10 72z" fill="#e8302e"/>
  </g>
  <path d="M128 84q-14-18-6-40q6 10 6 18q0-8 6-18q8 22-6 40z" fill="url(#gold)"/>
  <!-- side wings/tufts -->
  <g stroke="#2a1a3a" stroke-width="6" stroke-linejoin="round">
    <path d="M60 146q-34-8-40 26q18 4 30-4q-8 14 0 22q20-12 24-34z" fill="#ff8a1c"/>
    <path d="M196 146q34-8 40 26q-18 4-30-4q8 14 0 22q-20-12-24-34z" fill="#ff8a1c"/>
  </g>
  <!-- head -->
  <ellipse cx="128" cy="152" rx="72" ry="62" fill="#ff5a2a" stroke="#2a1a3a" stroke-width="7"/>
  <path d="M84 168q44 30 88 0q-6 34-44 36q-38-2-44-36z" fill="#ffd35a" opacity=".9"/>
  <ellipse cx="88" cy="116" rx="12" ry="20" transform="rotate(26 88 116)" fill="#fff" opacity=".5"/>
  <!-- gold forehead gem -->
  <path d="M128 96l9 12l-9 12l-9-12z" fill="url(#gold)" stroke="#2a1a3a" stroke-width="4" stroke-linejoin="round"/>
  <!-- eyes -->
  <ellipse cx="94" cy="148" rx="11" ry="15" fill="#2a1a3a"/>
  <circle cx="98" cy="142" r="4.8" fill="#fff"/>
  <ellipse cx="162" cy="148" rx="11" ry="15" fill="#2a1a3a"/>
  <circle cx="166" cy="142" r="4.8" fill="#fff"/>
  <path d="M78 130q12-10 26-4M178 130q-12-10-26-4" fill="none" stroke="#2a1a3a" stroke-width="5" stroke-linecap="round"/>
  <ellipse cx="72" cy="170" rx="13" ry="8" fill="#ff9fb0"/>
  <ellipse cx="184" cy="170" rx="13" ry="8" fill="#ff9fb0"/>
  <!-- beak -->
  <path d="M112 164q16-8 32 0q-4 22-16 24q-12-2-16-24z" fill="url(#gold)" stroke="#2a1a3a" stroke-width="5" stroke-linejoin="round"/>
  <path d="M116 174q12 6 24 0" fill="none" stroke="#2a1a3a" stroke-width="3.5" stroke-linecap="round"/>
  <g transform="rotate(-6 180 204)">
    <rect x="162" y="186" width="36" height="36" rx="6" fill="#c3272d" stroke="#2a1a3a" stroke-width="4"/>
    <text x="180" y="214" text-anchor="middle" font-family="Kaiti SC, STKaiti, PingFang SC, serif" font-size="26" font-weight="700" fill="#f7ecdc">凤</text>
  </g>
</svg>
