<svg xmlns="http://www.w3.org/2000/svg" viewBox="0 0 256 256" width="256" height="256">
  <defs>
    <radialGradient id="bg" cx=".5" cy=".38" r=".85">
      <stop offset="0" stop-color="#f4effa"/>
      <stop offset="1" stop-color="#b4adc0"/>
    </radialGradient>
  </defs>
  <rect width="256" height="256" fill="url(#bg)"/>
  <ellipse cx="128" cy="228" rx="70" ry="10" fill="#2a1a3a" opacity=".25"/>
  <!-- steam -->
  <g fill="none" stroke-linecap="round" stroke-linejoin="round">
    <path d="M84 100q-14-12 0-24q14-12 0-24" stroke="#2a1a3a" stroke-width="11"/>
    <path d="M84 100q-14-12 0-24q14-12 0-24" stroke="#fff" stroke-width="5"/>
  </g>
  <!-- saucer -->
  <ellipse cx="128" cy="208" rx="76" ry="13" fill="#bfe6cc" stroke="#2a1a3a" stroke-width="6"/>
  <!-- cup -->
  <path d="M52 124H204Q204 204 128 204Q52 204 52 124Z" fill="#fffaf0" stroke="#2a1a3a" stroke-width="7" stroke-linejoin="round"/>
  <path d="M58 140Q128 154 198 140" fill="none" stroke="#5fb36f" stroke-width="8" stroke-linecap="round"/>
  <ellipse cx="78" cy="160" rx="10" ry="18" transform="rotate(20 78 160)" fill="#fff" opacity=".6"/>
  <!-- tea opening -->
  <ellipse cx="128" cy="124" rx="76" ry="16" fill="#8bc34a" stroke="#2a1a3a" stroke-width="7"/>
  <ellipse cx="108" cy="124" rx="20" ry="5" fill="#b5e07a"/>
  <!-- lid ajar -->
  <g transform="rotate(14 172 104)" stroke="#2a1a3a" stroke-linejoin="round">
    <path d="M132 102Q134 68 172 66Q210 68 212 102Z" fill="#fffaf0" stroke-width="6"/>
    <ellipse cx="172" cy="102" rx="44" ry="8" fill="#e8f5e0" stroke-width="6"/>
    <circle cx="172" cy="62" r="8" fill="#5fb36f" stroke-width="5"/>
    <path d="M150 90Q172 78 194 90" fill="none" stroke="#5fb36f" stroke-width="5" stroke-linecap="round"/>
  </g>
  <!-- face -->
  <ellipse cx="82" cy="180" rx="13" ry="8" fill="#ff9fb0"/>
  <ellipse cx="174" cy="180" rx="13" ry="8" fill="#ff9fb0"/>
  <ellipse cx="102" cy="162" rx="11" ry="15" fill="#2a1a3a"/>
  <circle cx="106" cy="156" r="4.8" fill="#fff"/>
  <ellipse cx="154" cy="162" rx="11" ry="15" fill="#2a1a3a"/>
  <circle cx="158" cy="156" r="4.8" fill="#fff"/>
  <path d="M116 178q12 12 24 0" fill="#ff7a95" stroke="#2a1a3a" stroke-width="4.5" stroke-linecap="round" stroke-linejoin="round"/>
  <!-- seal -->
  <g transform="rotate(-6 180 204)">
    <rect x="162" y="186" width="36" height="36" rx="6" fill="#c3272d" stroke="#2a1a3a" stroke-width="4"/>
    <text x="180" y="214" text-anchor="middle" font-family="Kaiti SC, STKaiti, PingFang SC, serif" font-size="26" font-weight="700" fill="#f7ecdc">茶</text>
  </g>
</svg>
