<svg xmlns="http://www.w3.org/2000/svg" viewBox="0 0 256 256" width="256" height="256">
  <defs>
    <radialGradient id="bg" cx=".5" cy=".4" r=".85">
      <stop offset="0" stop-color="#fff0b8"/>
      <stop offset="1" stop-color="#d98a0b"/>
    </radialGradient>
    <linearGradient id="gold" x1="0" y1="0" x2="1" y2="1">
      <stop offset="0" stop-color="#fff3c0"/>
      <stop offset=".5" stop-color="#f4c542"/>
      <stop offset="1" stop-color="#b47a1c"/>
    </linearGradient>
  </defs>
  <rect width="256" height="256" fill="url(#bg)"/>
  <g fill="#fff" opacity=".12">
    <path d="M128 128L-20 40V-20h60zM128 128L96-20h64zM128 128L216-20h60v60zM128 128l148 88v60h-60zM128 128l32 148h-64zM128 128l-88 148h-60v-60zM128 128L276 90v60zM128 128L-20 90v60z"/>
  </g>
  <g fill="#fff3c0">
    <path d="M30 100l4 11 11 4-11 4-4 11-4-11-11-4 11-4z"/>
    <path d="M226 74l3 8 8 3-8 3-3 8-3-8-8-3 8-3z"/>
    <path d="M214 150l3 7 7 3-7 3-3 7-3-7-7-3 7-3z"/>
  </g>
  <ellipse cx="128" cy="232" rx="72" ry="9" fill="#2a1a3a" opacity=".25"/>
  <!-- hat wings -->
  <g stroke="#2a1a3a" stroke-width="5" stroke-linejoin="round">
    <rect x="30" y="52" width="62" height="20" rx="10" fill="#c3272d"/>
    <rect x="164" y="52" width="62" height="20" rx="10" fill="#c3272d"/>
  </g>
  <g fill="url(#gold)" stroke="#2a1a3a" stroke-width="3">
    <circle cx="40" cy="62" r="5"/><circle cx="216" cy="62" r="5"/>
  </g>
  <!-- beard -->
  <path d="M52 140q-4 60 40 74q36 12 72 0q44-14 40-74z" fill="#3a2a3a" stroke="#2a1a3a" stroke-width="7" stroke-linejoin="round"/>
  <!-- face -->
  <ellipse cx="128" cy="140" rx="68" ry="58" fill="#ffe0c0" stroke="#2a1a3a" stroke-width="7"/>
  <!-- hat -->
  <path d="M68 94q-4-50 60-60q64 10 60 60q-60 -14-120 0z" fill="#e8302e" stroke="#2a1a3a" stroke-width="7" stroke-linejoin="round"/>
  <path d="M64 92q64-18 128 0v14q-64-16-128 0z" fill="url(#gold)" stroke="#2a1a3a" stroke-width="5" stroke-linejoin="round"/>
  <circle cx="128" cy="64" r="11" fill="url(#gold)" stroke="#2a1a3a" stroke-width="4"/>
  <path d="M120 64h16M128 56v16" stroke="#b47a1c" stroke-width="3"/>
  <ellipse cx="90" cy="70" rx="9" ry="14" transform="rotate(30 90 70)" fill="#fff" opacity=".4"/>
  <!-- face features -->
  <path d="M82 124q10-8 20 0M154 124q10-8 20 0" fill="none" stroke="#2a1a3a" stroke-width="5" stroke-linecap="round"/>
  <ellipse cx="92" cy="138" rx="10" ry="13" fill="#2a1a3a"/><circle cx="96" cy="132" r="4.4" fill="#fff"/>
  <ellipse cx="164" cy="138" rx="10" ry="13" fill="#2a1a3a"/><circle cx="168" cy="132" r="4.4" fill="#fff"/>
  <ellipse cx="70" cy="158" rx="13" ry="9" fill="#ff7a95" opacity=".85"/>
  <ellipse cx="186" cy="158" rx="13" ry="9" fill="#ff7a95" opacity=".85"/>
  <ellipse cx="128" cy="156" rx="9" ry="7" fill="#ff9fb0" stroke="#2a1a3a" stroke-width="3.5"/>
  <!-- moustache + smile -->
  <path d="M128 164q-14-8-34 0q6 12 30 6zM128 164q14-8 34 0q-6 12-30 6z" fill="#3a2a3a" stroke="#2a1a3a" stroke-width="3" stroke-linejoin="round"/>
  <path d="M110 182q18 14 36 0q-4 12-18 12q-14 0-18-12z" fill="#7a1024" stroke="#2a1a3a" stroke-width="4" stroke-linejoin="round"/>
  <!-- ingot + coins -->
  <path d="M30 214q4-24 28-24q24 0 28 24q-8 10-28 10q-20 0-28-10z" fill="url(#gold)" stroke="#2a1a3a" stroke-width="5" stroke-linejoin="round"/>
  <path d="M42 204q16-10 32 0" fill="none" stroke="#b47a1c" stroke-width="4" stroke-linecap="round"/>
  <ellipse cx="50" cy="202" rx="6" ry="3" fill="#fff" opacity=".7"/>
  <g fill="url(#gold)" stroke="#2a1a3a" stroke-width="4">
    <circle cx="106" cy="224" r="12"/><circle cx="132" cy="232" r="11"/>
  </g>
  <g fill="#2a1a3a"><rect x="102" y="220" width="8" height="8"/><rect x="128.5" y="228.5" width="7" height="7"/></g>
  <g transform="rotate(-6 180 204)">
    <rect x="162" y="186" width="36" height="36" rx="6" fill="#c3272d" stroke="#2a1a3a" stroke-width="4"/>
    <text x="180" y="214" text-anchor="middle" font-family="Kaiti SC, STKaiti, PingFang SC, serif" font-size="26" font-weight="700" fill="#f7ecdc">财</text>
  </g>
</svg>
